PathFileType	4	(X/Y/Z)	C:\Users\willi\Desktop\Data_PaperCallum_v2\17_Akif\Gait03\marker_experimental_temp.trc
DataRate	CameraRate	NumFrames	NumMarkers	Units	OrigDataRate	OrigDataStartFrame	OrigNumFrames
100.000000	100.000000	7	27	mm	100.000000	19	158
Frame#	Time	C7			T10			Clav			Sternum			Right_Back			PCL_CRAN			PCL_RECHTS			PCL_LINKS			RCL_UL_CRAN			RCL_UL_POST			RCL_UL_ANT			RCL_LL_CRAN			RCL_LL_POST			RCL_LL_ANT			Right_Heel			Right_Toe			Right_M5			LCL_UL_CRAN			LCL_UL_POST			LCL_UL_ANT			LCL_LL_CRAN			LCL_LL_POST			LCL_LL_ANT			Left_Heel			Left_Toe			Left_M5			*26			
		X1	Y1	Z1	X2	Y2	Z2	X3	Y3	Z3	X4	Y4	Z4	X5	Y5	Z5	X6	Y6	Z6	X7	Y7	Z7	X8	Y8	Z8	X9	Y9	Z9	X10	Y10	Z10	X11	Y11	Z11	X12	Y12	Z12	X13	Y13	Z13	X14	Y14	Z14	X15	Y15	Z15	X16	Y16	Z16	X17	Y17	Z17	X18	Y18	Z18	X19	Y19	Z19	X20	Y20	Z20	X21	Y21	Z21	X22	Y22	Z22	X23	Y23	Z23	X24	Y24	Z24	X25	Y25	Z25	X26	Y26	Z26	X27	Y27	Z27	

20	0.19	1168.20849609375	1393.463500976563	198.0466918945312	1202.751098632813	1174.140625	202.0729064941405	1025.133422851563	1319.862426757813	202.8564147949218	963.4778442382811	1158.248046875	222.1993713378906	1204.962768554688	1325.029907226563	91.52083587646477	1189.23876953125	1005.201782226563	190.0813446044921	1196.943969726563	948.0033569335939	161.5996856689452	1200.991943359375	943.7528686523439	212.0326385498046	1014.013488769531	720.1633300781251	29.41742134094232	1014.415954589844	655.8047485351564	37.40984344482415	968.7122802734375	674.6782836914064	34.82883834838862	963.2303466796875	371.3847961425782	79.41042327880854	981.8607788085938	309.2286071777344	73.21023559570307	933.967529296875	313.3390197753907	90.36515808105463	1017.558166503906	30.12867736816413	176.8328552246093	817.1297607421875	34.98284530639653	183.7232513427734	860.2743530273438	11.53024673461919	124.6355285644531	1117.790893554688	732.7608642578126	380.0514526367187	1134.477172851563	669.5706176757814	374.9200439453124	1086.862060546875	675.0238647460939	387.5736999511718	1234.716674804688	394.3669738769532	379.0402526855468	1294.162719726563	367.7435607910157	372.5075683593749	1257.396240234375	333.2342224121094	375.3529357910156	1514.461059570313	222.7953033447266	277.7089233398436	1430.051147460938	52.33567428588876	268.6941833496093	1472.714721679688	61.24936294555673	321.6121215820311	nan	nan	nan	
21	0.2	1153.691650390625	1395.786743164063	197.018325805664	1188.442260742188	1176.501708984375	201.1330413818359	1010.774353027344	1322.071899414063	202.6548461914062	949.4155883789061	1160.348510742188	222.2488861083984	1189.74853515625	1327.53173828125	89.99194335937493	1175.239135742188	1007.349548339844	189.5570068359374	1182.908081054688	950.1854248046876	161.0149993896484	1186.94580078125	945.8683471679689	211.4423217773437	1003.098266601563	721.5316772460939	28.67119407653803	1004.7490234375	657.1622924804689	37.0775413513183	958.6995849609375	675.2249145507814	33.23814392089838	959.0341186523438	371.4530334472657	78.89759063720697	979.3269653320313	309.3551940917969	73.85974884033197	930.9235229492188	312.7412109375001	89.55994415283197	1017.786315917969	29.93654441833502	176.8008422851562	817.3008422851563	35.17350006103521	183.7888793945312	860.3626708984375	11.71479797363287	124.5065765380859	1098.903686523438	733.6679687500001	380.4276733398437	1113.863525390625	669.7186279296876	375.5744934082031	1066.482543945313	676.6813354492189	388.5171813964843	1205.571533203125	394.3597412109376	382.2357482910156	1265.319213867188	368.4656677246094	376.4110412597656	1228.90966796875	333.3990783691407	376.9510498046874	1490.501220703125	231.0065002441407	280.7463378906249	1408.559814453125	58.02569580078134	271.1886291503905	1450.676879882813	69.10084533691415	324.477813720703	nan	nan	nan	
22	0.21	1139.233154296875	1398.142944335938	196.0212097167968	1174.2763671875	1178.909057617188	200.1683044433593	996.5055541992186	1324.262451171875	202.5036010742187	935.5290527343749	1162.396362304688	222.3275756835937	1174.574462890625	1330.11572265625	88.44049835205071	1161.443481445313	1009.509338378906	189.0232543945312	1169.084838867188	952.3562622070314	160.474395751953	1173.115234375	948.0196533203126	210.8984832763671	992.60009765625	722.7598876953126	28.17758560180658	995.8687744140625	658.3628540039064	36.93350982666009	949.321533203125	675.3656005859376	32.15478134155268	955.7041015625	371.4332275390626	78.60170745849604	977.3006591796875	309.4310302734376	74.90988159179682	928.4276123046875	312.2805786132813	88.80550384521479	1018.027954101563	29.7835540771485	176.8402404785156	817.5094604492188	35.31785583496099	183.9666442871093	860.4443969726563	11.90367412567144	124.4959335327148	1080.103881835938	734.9266357421876	380.7527160644531	1093.4462890625	670.3858032226564	376.0471801757812	1046.266845703125	678.7839965820314	389.2476501464843	1176.111938476563	394.6223754882813	385.0694274902343	1236.185791015625	369.4281616210938	380.0642089843749	1200.188232421875	333.9942932128907	377.8047180175781	1465.458129882813	237.0873565673829	282.8858642578124	1383.134033203125	63.32735824584969	274.4508666992187	1425.497436523438	75.87740325927743	327.6766662597655	nan	nan	nan	
23	0.22	1124.837280273438	1400.493286132813	195.0602722167968	1160.245483398438	1181.319702148438	199.1880798339843	982.3273315429686	1326.404418945313	202.3973846435546	921.7977905273436	1164.3720703125	222.4222869873046	1159.454345703125	1332.730712890625	86.88371276855462	1147.828369140625	1011.6572265625	188.493423461914	1155.45458984375	954.4915161132814	159.991470336914	1159.476928710938	950.1824951171876	210.4152526855468	982.4414672851563	723.8572998046876	27.93970108032221	987.546630859375	659.4537353515626	36.9173622131347	940.4000854492188	675.2159423828126	31.65570068359369	952.993896484375	371.3817749023438	78.47283935546869	975.5791625976563	309.5327453613282	76.08553314208979	926.3101806640625	311.9445190429688	88.18002319335932	1018.248474121094	29.69499397277838	176.9107666015624	817.700927734375	35.378101348877	184.2071228027343	860.5006103515625	12.05250072479253	124.5568161010742	1061.387817382813	736.5496826171876	380.9922790527343	1073.234252929688	671.6199951171876	376.3842468261718	1026.212158203125	681.3381347656251	389.7201538085937	1146.647216796875	395.3194885253907	387.4765014648437	1207.056518554688	370.7557983398438	383.2388305664062	1171.493408203125	335.1721496582032	378.1474609374999	1439.367553710938	240.8993225097657	284.1224060058593	1354.240478515625	67.8605270385743	278.3405456542968	1397.431884765625	81.26570892333993	331.1203613281249	nan	nan	nan	
24	0.23	1110.506591796875	1402.79931640625	194.1400909423828	1146.33935546875	1183.69189453125	198.2032928466796	968.2381591796874	1328.46923828125	202.3303833007812	908.1989135742186	1166.25732421875	222.5197448730468	1144.400512695313	1335.326904296875	85.33943176269524	1134.369140625	1013.76953125	187.9826660156249	1141.99609375	956.5675659179689	159.5806274414062	1146.005493164063	952.3324584960939	210.0074462890624	972.5520629882813	724.8379516601564	27.94287681579584	979.5213623046875	660.4744262695314	36.97936248779291	931.7555541992188	674.9157104492189	31.71434402465815	950.677001953125	371.3495483398438	78.45928955078119	973.9879150390625	309.7163085937501	77.12799072265619	924.4257202148438	311.7109069824219	87.72840118408197	1018.429138183594	29.67781829833991	176.9791107177734	817.8474731445313	35.35391235351567	184.4596099853515	860.5263061523438	12.14259910583501	124.6454772949218	1042.7412109375	738.5202636718751	381.1304321289062	1053.178466796875	673.3984985351564	376.6530456542968	1006.281005859375	684.3138427734376	389.9392700195312	1117.421752929688	396.5488891601563	389.3968811035156	1178.1318359375	372.4499206542969	385.7346801757812	1142.93017578125	336.9328002929688	378.2548522949218	1412.257446289063	242.3740539550782	284.6156616210936	1322.361083984375	71.36271667480477	282.6731262207031	1366.707275390625	85.10293579101571	334.7450256347656	nan	nan	nan	
25	0.24	1096.24169921875	1405.023559570313	193.2648010253906	1132.546020507813	1185.985229492188	197.2259368896484	954.2344970703124	1330.429565429688	202.2966613769531	894.7088623046874	1168.033935546875	222.6075744628906	1129.4228515625	1337.856323242188	83.82510375976555	1121.040893554688	1015.821716308594	187.5072631835937	1128.6875	958.5606079101564	159.2563018798828	1132.675415039063	954.4438476562501	209.6897888183593	962.8749389648438	725.7141113281251	28.15919303894037	971.5595092773438	661.4487304687501	37.09651184082026	923.2379150390625	674.5919799804688	32.21089172363276	948.5755004882813	371.3782348632813	78.52135467529291	972.388671875	310.0140380859376	77.8422012329101	922.6568603515625	311.5673217773438	87.44666290283197	1018.563537597656	29.72894287109381	177.0233459472656	817.9409790039063	35.26577758789067	184.6820983886718	860.5252075195313	12.17220020294195	124.7278060913085	1024.150634765625	740.7928466796876	381.1735229492187	1033.202392578125	675.6360473632814	376.9156494140624	986.4275512695313	687.6497192382814	389.9565734863281	1088.599975585938	398.3268127441407	390.7832946777343	1149.512817382813	374.3995971679688	387.4171752929687	1114.468505859375	339.1412963867188	378.3803710937499	1384.145141601563	241.5113067626954	284.6089172363281	1287.936767578125	73.7105255126954	287.2636108398437	1333.541625976563	87.36354064941415	338.5028686523437	nan	nan	nan	
26	0.25	1082.041381835938	1407.130249023438	192.4379730224609	1118.8525390625	1188.161987304688	196.2687683105468	940.3112182617186	1332.258911132813	202.2904663085937	881.3040161132811	1169.68310546875	222.6752166748046	1114.5283203125	1340.273803710938	82.35689544677727	1107.820068359375	1017.788330078125	187.0841064453124	1115.50732421875	960.4468994140626	159.0319519042968	1119.461547851563	956.4894409179689	209.4758148193359	953.3687744140625	726.4924926757814	28.55351829528803	963.5015869140625	662.3830566406251	37.27863693237299	914.7459716796875	674.3310546875	32.97151947021479	946.5746459960938	371.4968261718751	78.63646697998041	970.7058715820313	310.4369812011719	78.13799285888666	920.9291381835938	311.5146179199219	87.28984832763666	1018.653564453125	29.84247589111335	177.0357971191406	817.9847412109375	35.14135742187505	184.8468017578124	860.5055541992188	12.14937210083013	124.782356262207	1005.613891601563	743.2984619140626	381.1483459472656	1013.240539550781	678.2036743164064	377.2050170898437	966.6241455078125	691.2590942382814	389.8517761230468	1060.2646484375	400.5878601074219	391.6113586425781	1121.210327148438	376.4174194335938	388.2413024902343	1085.9990234375	341.5818176269532	378.7026062011718	1355.030639648438	238.373260498047	284.3462829589843	1251.346923828125	74.9097976684571	291.9536743164062	1298.160278320313	88.13181304931649	342.3521728515624	nan	nan	nan	
